<svg width="45" height="45" viewBox="0 0 45 45" fill="none" xmlns="http://www.w3.org/2000/svg">
<rect width="45" height="45" rx="22.5" fill="white"/>
<path d="M33 32.625H12C11.305 32.6211 10.6396 32.3432 10.1482 31.8518C9.65676 31.3604 9.37894 30.695 9.375 30V15C9.37894 14.305 9.65676 13.6396 10.1482 13.1482C10.6396 12.6568 11.305 12.3789 12 12.375H33C33.695 12.3789 34.3604 12.6568 34.8518 13.1482C35.3432 13.6396 35.6211 14.305 35.625 15V30C35.6211 30.695 35.3432 31.3604 34.8518 31.8518C34.3604 32.3432 33.695 32.6211 33 32.625ZM12 14.625C11.9005 14.625 11.8052 14.6645 11.7348 14.7348C11.6645 14.8052 11.625 14.9005 11.625 15V30C11.625 30.0995 11.6645 30.1948 11.7348 30.2652C11.8052 30.3355 11.9005 30.375 12 30.375H33C33.0995 30.375 33.1948 30.3355 33.2652 30.2652C33.3355 30.1948 33.375 30.0995 33.375 30V15C33.375 14.9005 33.3355 14.8052 33.2652 14.7348C33.1948 14.6645 33.0995 14.625 33 14.625H12Z" fill="black"/>
<path d="M18 22.125C17.4067 22.125 16.8266 21.9491 16.3333 21.6194C15.8399 21.2898 15.4554 20.8212 15.2284 20.2731C15.0013 19.7249 14.9419 19.1217 15.0576 18.5397C15.1734 17.9578 15.4591 17.4232 15.8787 17.0037C16.2982 16.5841 16.8328 16.2984 17.4147 16.1826C17.9967 16.0669 18.5999 16.1263 19.148 16.3534C19.6962 16.5804 20.1648 16.9649 20.4944 17.4583C20.8241 17.9516 21 18.5317 21 19.125C21 19.9207 20.6839 20.6837 20.1213 21.2463C19.5587 21.8089 18.7956 22.125 18 22.125ZM18 18.375C17.8517 18.375 17.7067 18.419 17.5833 18.5014C17.46 18.5838 17.3639 18.7009 17.3071 18.838C17.2503 18.975 17.2355 19.1258 17.2644 19.2713C17.2933 19.4168 17.3648 19.5504 17.4697 19.6553C17.5746 19.7602 17.7082 19.8317 17.8537 19.8606C17.9992 19.8895 18.15 19.8747 18.287 19.8179C18.4241 19.7611 18.5412 19.665 18.6236 19.5417C18.706 19.4183 18.75 19.2733 18.75 19.125C18.75 18.9261 18.671 18.7353 18.5303 18.5947C18.3897 18.454 18.1989 18.375 18 18.375ZM22.5 28.125C22.2028 28.1211 21.9189 28.0013 21.7088 27.7912C21.4987 27.5811 21.3789 27.2972 21.375 27C21.375 25.98 21.12 25.125 18 25.125C14.88 25.125 14.625 25.98 14.625 27C14.625 27.2984 14.5065 27.5845 14.2955 27.7955C14.0845 28.0065 13.7984 28.125 13.5 28.125C13.2016 28.125 12.9155 28.0065 12.7045 27.7955C12.4935 27.5845 12.375 27.2984 12.375 27C12.375 22.875 16.605 22.875 18 22.875C19.395 22.875 23.625 22.875 23.625 27C23.6211 27.2972 23.5013 27.5811 23.2912 27.7912C23.0811 28.0013 22.7972 28.1211 22.5 28.125ZM30 20.625H25.5C25.2016 20.625 24.9155 20.5065 24.7045 20.2955C24.4935 20.0845 24.375 19.7984 24.375 19.5C24.375 19.2016 24.4935 18.9155 24.7045 18.7045C24.9155 18.4935 25.2016 18.375 25.5 18.375H30C30.2984 18.375 30.5845 18.4935 30.7955 18.7045C31.0065 18.9155 31.125 19.2016 31.125 19.5C31.125 19.7984 31.0065 20.0845 30.7955 20.2955C30.5845 20.5065 30.2984 20.625 30 20.625ZM28.5 25.125H25.5C25.2016 25.125 24.9155 25.0065 24.7045 24.7955C24.4935 24.5845 24.375 24.2984 24.375 24C24.375 23.7016 24.4935 23.4155 24.7045 23.2045C24.9155 22.9935 25.2016 22.875 25.5 22.875H28.5C28.7984 22.875 29.0845 22.9935 29.2955 23.2045C29.5065 23.4155 29.625 23.7016 29.625 24C29.625 24.2984 29.5065 24.5845 29.2955 24.7955C29.0845 25.0065 28.7984 25.125 28.5 25.125Z" fill="black"/>
</svg>
