<svg width="45" height="45" viewBox="0 0 45 45" fill="none" xmlns="http://www.w3.org/2000/svg">
<rect width="45" height="45" rx="22.5" fill="white"/>
<path d="M17.25 10H27.75C31.75 10 35 13.25 35 17.25V27.75C35 29.6728 34.2362 31.5169 32.8765 32.8765C31.5169 34.2362 29.6728 35 27.75 35H17.25C13.25 35 10 31.75 10 27.75V17.25C10 15.3272 10.7638 13.4831 12.1235 12.1235C13.4831 10.7638 15.3272 10 17.25 10ZM17 12.5C15.8065 12.5 14.6619 12.9741 13.818 13.818C12.9741 14.6619 12.5 15.8065 12.5 17V28C12.5 30.4875 14.5125 32.5 17 32.5H28C29.1935 32.5 30.3381 32.0259 31.182 31.182C32.0259 30.3381 32.5 29.1935 32.5 28V17C32.5 14.5125 30.4875 12.5 28 12.5H17ZM29.0625 14.375C29.4769 14.375 29.8743 14.5396 30.1674 14.8326C30.4604 15.1257 30.625 15.5231 30.625 15.9375C30.625 16.3519 30.4604 16.7493 30.1674 17.0424C29.8743 17.3354 29.4769 17.5 29.0625 17.5C28.6481 17.5 28.2507 17.3354 27.9576 17.0424C27.6646 16.7493 27.5 16.3519 27.5 15.9375C27.5 15.5231 27.6646 15.1257 27.9576 14.8326C28.2507 14.5396 28.6481 14.375 29.0625 14.375ZM22.5 16.25C24.1576 16.25 25.7473 16.9085 26.9194 18.0806C28.0915 19.2527 28.75 20.8424 28.75 22.5C28.75 24.1576 28.0915 25.7473 26.9194 26.9194C25.7473 28.0915 24.1576 28.75 22.5 28.75C20.8424 28.75 19.2527 28.0915 18.0806 26.9194C16.9085 25.7473 16.25 24.1576 16.25 22.5C16.25 20.8424 16.9085 19.2527 18.0806 18.0806C19.2527 16.9085 20.8424 16.25 22.5 16.25ZM22.5 18.75C21.5054 18.75 20.5516 19.1451 19.8483 19.8483C19.1451 20.5516 18.75 21.5054 18.75 22.5C18.75 23.4946 19.1451 24.4484 19.8483 25.1517C20.5516 25.8549 21.5054 26.25 22.5 26.25C23.4946 26.25 24.4484 25.8549 25.1517 25.1517C25.8549 24.4484 26.25 23.4946 26.25 22.5C26.25 21.5054 25.8549 20.5516 25.1517 19.8483C24.4484 19.1451 23.4946 18.75 22.5 18.75Z" fill="black"/>
</svg>
