<svg width="45" height="45" viewBox="0 0 45 45" fill="none" xmlns="http://www.w3.org/2000/svg">
<rect width="45" height="45" rx="22.5" fill="white"/>
<path d="M16.117 14.7232C16.1167 15.3125 15.8732 15.8776 15.44 16.2941C15.0069 16.7107 14.4196 16.9445 13.8073 16.9442C13.1951 16.9439 12.608 16.7095 12.1753 16.2926C11.7426 15.8756 11.4997 15.3103 11.5 14.721C11.5003 14.1317 11.7438 13.5666 12.177 13.1501C12.6101 12.7335 13.1974 12.4997 13.8097 12.5C14.4219 12.5003 15.009 12.7347 15.4417 13.1516C15.8744 13.5686 16.1173 14.1339 16.117 14.7232ZM16.1863 18.5897H11.5693V32.5H16.1863V18.5897ZM23.4811 18.5897H18.8872V32.5H23.4349V25.2004C23.4349 21.134 28.9407 20.7562 28.9407 25.2004V32.5H33.5V23.6894C33.5 16.8342 25.351 17.0897 23.4349 20.4562L23.4811 18.5897Z" fill="#1A1A1A"/>
</svg>
