<svg width="30" height="32" viewBox="0 0 30 32" fill="none" xmlns="http://www.w3.org/2000/svg">
<path d="M0 28.3429V11.8857C0 11.3067 0.133125 10.7581 0.399375 10.24C0.665625 9.7219 1.0325 9.29524 1.5 8.96L12.75 0.731429C13.4062 0.24381 14.1562 0 15 0C15.8437 0 16.5937 0.24381 17.25 0.731429L28.5 8.96C28.9687 9.29524 29.3362 9.7219 29.6025 10.24C29.8687 10.7581 30.0012 11.3067 30 11.8857V28.3429C30 29.3486 29.6325 30.2098 28.8975 30.9266C28.1625 31.6434 27.28 32.0012 26.25 32H20.625C20.0937 32 19.6487 31.8245 19.29 31.4734C18.9312 31.1223 18.7512 30.6883 18.75 30.1714V21.0286C18.75 20.5105 18.57 20.0765 18.21 19.7266C17.85 19.3768 17.405 19.2012 16.875 19.2H13.125C12.5937 19.2 12.1487 19.3755 11.79 19.7266C11.4312 20.0777 11.2512 20.5117 11.25 21.0286V30.1714C11.25 30.6895 11.07 31.1241 10.71 31.4752C10.35 31.8263 9.905 32.0012 9.375 32H3.75C2.71875 32 1.83625 31.6422 1.1025 30.9266C0.36875 30.211 0.00125 29.3498 0 28.3429Z" fill="white"/>
</svg>
