<svg width="32" height="32" viewBox="0 0 32 32" fill="none" xmlns="http://www.w3.org/2000/svg">
<path d="M8.00303 0.447776C9.83455 1.78256 11.2607 3.60447 12.4785 5.34786L13.1867 6.37979L13.8549 7.36525C14.1891 7.85355 14.332 8.44774 14.2564 9.03461C14.1807 9.62148 13.8918 10.16 13.4447 10.5476L10.3185 12.8694C10.1674 12.9785 10.0611 13.1387 10.0193 13.3202C9.97742 13.5018 10.0029 13.6923 10.0909 13.8565C10.7992 15.1432 12.0586 17.0597 13.5008 18.5018C14.9429 19.9439 16.9507 21.2867 18.3271 22.0751C18.4997 22.172 18.7029 22.1991 18.8948 22.1508C19.0867 22.1025 19.2529 21.9825 19.3591 21.8155L21.3941 18.7181C21.7682 18.2211 22.3201 17.8882 22.9343 17.789C23.5484 17.6899 24.177 17.8322 24.6886 18.1861L25.751 18.9216C27.7363 20.2997 29.8691 21.8652 31.5003 23.9531C31.759 24.2861 31.9235 24.6824 31.9768 25.1007C32.0301 25.5189 31.9701 25.9438 31.8031 26.331C30.4619 29.4605 27.0681 32.1252 23.5381 31.9954L23.0574 31.9682L22.684 31.9362L22.2706 31.8881L21.8203 31.8272L21.3316 31.7471L21.0752 31.699L20.5368 31.5836L20.2548 31.5195L19.6683 31.3689L19.0514 31.1927L18.4073 30.9843C15.4493 29.9813 11.6949 28.0103 7.84279 24.1582C3.99068 20.3061 2.02136 16.5533 1.01827 13.5953L0.809965 12.9512L0.633704 12.3342L0.48308 11.7478L0.358095 11.1933C0.322038 11.0197 0.288385 10.8455 0.257145 10.671L0.177027 10.1822L0.112931 9.73197L0.0664626 9.31856L0.0344149 8.9452L0.00877703 8.46449C-0.121015 4.94566 2.57258 1.52778 5.6876 0.192997C6.06252 0.0311038 6.47308 -0.030534 6.87901 0.0141324C7.28494 0.0587987 7.67228 0.208234 8.00303 0.447776ZM21.0384 6.20833L21.2242 6.22917C22.3906 6.43491 23.4619 7.00463 24.2846 7.85667C25.1073 8.70871 25.6391 9.79933 25.8038 10.9722C25.8626 11.3779 25.7636 11.7907 25.5273 12.1256C25.2909 12.4605 24.9352 12.6922 24.5333 12.7728C24.1314 12.8535 23.7139 12.7771 23.3666 12.5593C23.0193 12.3415 22.7687 11.9989 22.6664 11.6019L22.6295 11.4177C22.5651 10.958 22.3688 10.5267 22.0646 10.1761C21.7603 9.82552 21.361 9.57052 20.915 9.44194L20.6666 9.38586C20.2643 9.31454 19.9043 9.0922 19.6605 8.7643C19.4166 8.4364 19.3073 8.02773 19.3547 7.62187C19.4022 7.216 19.603 6.84361 19.9159 6.58086C20.2289 6.31811 20.6304 6.18485 21.0384 6.20833ZM21.0512 1.3371C23.601 1.3371 26.0465 2.35003 27.8495 4.15306C29.6525 5.95608 30.6654 8.40152 30.6654 10.9514C30.665 11.3598 30.5086 11.7526 30.2282 12.0496C29.9479 12.3466 29.5647 12.5253 29.157 12.5492C28.7493 12.5732 28.3478 12.4405 28.0346 12.1784C27.7214 11.9162 27.5201 11.5444 27.4719 11.1389L27.4607 10.9514C27.4605 9.32426 26.8415 7.7581 25.7292 6.57053C24.6169 5.38295 23.0946 4.66286 21.471 4.55628L21.0512 4.54186C20.6262 4.54186 20.2186 4.37304 19.9181 4.07253C19.6176 3.77203 19.4488 3.36446 19.4488 2.93948C19.4488 2.5145 19.6176 2.10693 19.9181 1.80642C20.2186 1.50592 20.6262 1.3371 21.0512 1.3371Z" fill="white"/>
</svg>
