<svg width="45" height="45" viewBox="0 0 45 45" fill="none" xmlns="http://www.w3.org/2000/svg">
<rect width="45" height="45" rx="22.5" fill="white"/>
<g clip-path="url(#clip0_227_165)">
<path fill-rule="evenodd" clip-rule="evenodd" d="M31.2221 14.2414C31.3194 14.1301 31.3938 14.0008 31.4411 13.8608C31.4884 13.7208 31.5077 13.5728 31.4978 13.4254C31.488 13.2779 31.4492 13.1339 31.3836 13.0014C31.3181 12.869 31.2271 12.7507 31.1158 12.6534C31.0046 12.5562 30.8752 12.4817 30.7352 12.4344C30.5952 12.3871 30.4473 12.3678 30.2998 12.3777C30.1524 12.3876 30.0083 12.4264 29.8759 12.492C29.7434 12.5575 29.6252 12.6485 29.5279 12.7598L23.7791 19.3298L18.9 12.825C18.7952 12.6853 18.6593 12.5719 18.5031 12.4938C18.3469 12.4157 18.1747 12.375 18 12.375H13.5C13.2911 12.375 13.0863 12.4332 12.9086 12.543C12.7308 12.6529 12.5872 12.81 12.4938 12.9969C12.4003 13.1838 12.3608 13.3929 12.3795 13.601C12.3983 13.8091 12.4746 14.0079 12.6 14.175L19.8416 23.8298L13.7779 30.7597C13.6806 30.871 13.6062 31.0003 13.5589 31.1403C13.5116 31.2803 13.4923 31.4283 13.5022 31.5757C13.512 31.7232 13.5508 31.8673 13.6164 31.9997C13.6819 32.1322 13.7729 32.2504 13.8842 32.3477C13.9954 32.445 14.1248 32.5194 14.2648 32.5667C14.4048 32.614 14.5527 32.6333 14.7002 32.6234C14.8476 32.6135 14.9917 32.5747 15.1241 32.5092C15.2566 32.4436 15.3748 32.3526 15.4721 32.2414L21.2209 25.6702L26.1 32.175C26.2048 32.3147 26.3407 32.4281 26.4969 32.5062C26.6531 32.5843 26.8253 32.625 27 32.625H31.5C31.7089 32.625 31.9137 32.5668 32.0914 32.457C32.2692 32.3471 32.4128 32.19 32.5062 32.0031C32.5997 31.8162 32.6392 31.6071 32.6205 31.399C32.6017 31.1909 32.5254 30.9921 32.4 30.825L25.1584 21.1702L31.2221 14.2414ZM27.5625 30.375L15.75 14.625H17.4375L29.25 30.375H27.5625Z" fill="black"/>
</g>
<defs>
<clipPath id="clip0_227_165">
<rect width="27" height="27" fill="white" transform="translate(9 9)"/>
</clipPath>
</defs>
</svg>
